<svg xmlns="http://www.w3.org/2000/svg" viewBox="0 0 131.80263 26.64474">
  <defs>
    <style>
      .a {
        fill: #58595b;
      }

      .b {
        fill: #0069aa;
      }
    </style>
  </defs>
  <title>UT Southwestern Medical Center logo</title>
  <g>
    <polygon class="a" points="46.565 17.203 48.219 17.203 51.082 24.837 53.958 17.203 55.612 17.203 55.612 26.288 54.467 26.288 54.467 18.731 54.441 18.731 51.603 26.288 50.574 26.288 47.735 18.731 47.711 18.731 47.711 26.288 46.565 26.288 46.565 17.203"/>
    <path class="a" d="M62.75642,24.20061a2.65014,2.65014,0,0,1-2.812,2.239c-2.099,0-3.093-1.451-3.155-3.459a3.16567,3.16567,0,0,1,3.092-3.423c2.327,0,3.041,2.174,2.977,3.764h-4.924a1.93774,1.93774,0,0,0,2.049,2.165,1.58433,1.58433,0,0,0,1.704-1.286Zm-1.043-1.832a1.89375,1.89375,0,0,0-1.896-1.859,1.87409,1.87409,0,0,0-1.883,1.859Z"/>
    <path class="a" d="M70.12051,26.28761h-1.081v-.891h-.025a2.21605,2.21605,0,0,1-2.101,1.043c-2.022,0-3.028-1.603-3.028-3.459,0-1.859.993-3.423,3.003-3.423a2.522,2.522,0,0,1,2.126,1.029h.025v-3.384h1.081Zm-3.054-.801c1.451,0,2.011-1.248,2.011-2.482,0-1.299-.586-2.495-2.075-2.495-1.476,0-1.972,1.26-1.972,2.545,0,1.235.637,2.432,2.036,2.432"/>
    <path class="a" d="M72.95742,18.52421h-1.082v-1.322h1.082Zm-1.082,1.184h1.082v6.579h-1.082Z"/>
    <path class="a" d="M79.16652,21.82051a1.53258,1.53258,0,0,0-1.628-1.311c-1.566,0-2.049,1.236-2.049,2.57,0,1.21.548,2.407,1.921,2.407a1.70163,1.70163,0,0,0,1.807-1.603h1.107a2.73258,2.73258,0,0,1-2.901,2.556c-2.01,0-3.079-1.399-3.079-3.36,0-1.971,1.018-3.522,3.105-3.522a2.52376,2.52376,0,0,1,2.838,2.263Z"/>
    <path class="a" d="M87.38942,26.26161a1.46465,1.46465,0,0,1-.776.178c-.56,0-.916-.304-.916-1.018a2.92054,2.92054,0,0,1-2.316,1.018c-1.196,0-2.176-.534-2.176-1.844,0-1.489,1.106-1.808,2.227-2.025,1.195-.227,2.213-.151,2.213-.964,0-.944-.776-1.097-1.463-1.097-.916,0-1.59.279-1.642,1.248h-1.08c.062-1.628,1.322-2.2,2.786-2.2,1.184,0,2.468.266,2.468,1.805v3.385c0,.51,0,.739.344.739a.91569.91569,0,0,0,.331-.065Zm-1.756-3.372a5.59441,5.59441,0,0,1-1.96.446c-.712.127-1.323.382-1.323,1.184,0,.712.611.967,1.272.967,1.426,0,2.011-.891,2.011-1.49Z"/>
    <rect class="a" x="88.87142" y="17.20221" width="1.082" height="9.085"/>
    <path class="a" d="M100.59042,19.93861a2.39239,2.39239,0,0,0-2.546-1.934c-2.162,0-3.078,1.782-3.078,3.676,0,2.076.916,3.806,3.093,3.806a2.57065,2.57065,0,0,0,2.62-2.621h1.209a3.698,3.698,0,0,1-3.932,3.639c-2.824,0-4.198-2.088-4.198-4.735,0-2.634,1.501-4.785,4.301-4.785a3.47863,3.47863,0,0,1,3.74,2.954Z"/>
    <path class="a" d="M108.72043,24.20061a2.65017,2.65017,0,0,1-2.812,2.239c-2.099,0-3.093-1.451-3.155-3.459a3.1655,3.1655,0,0,1,3.091-3.423c2.329,0,3.042,2.174,2.978,3.764h-4.924a1.93824,1.93824,0,0,0,2.049,2.165,1.58434,1.58434,0,0,0,1.704-1.286Zm-1.043-1.832a1.89377,1.89377,0,0,0-1.896-1.859,1.87474,1.87474,0,0,0-1.883,1.859Z"/>
    <path class="a" d="M109.85252,19.70861h1.018v1.043h.026a2.29065,2.29065,0,0,1,2.138-1.194c1.73,0,2.264.992,2.264,2.403v4.327h-1.081v-4.453a1.24055,1.24055,0,0,0-1.336-1.325,1.84916,1.84916,0,0,0-1.947,2.061v3.717h-1.082Z"/>
    <path class="a" d="M118.58243,19.70861h1.31v.954h-1.31v4.085c0,.497.14.585.813.585h.497v.955h-.828c-1.12,0-1.565-.228-1.565-1.437v-4.188h-1.121v-.954h1.121v-1.973h1.083Z"/>
    <path class="a" d="M126.63542,24.20061a2.64981,2.64981,0,0,1-2.811,2.239c-2.1,0-3.093-1.451-3.157-3.459a3.167,3.167,0,0,1,3.093-3.423c2.329,0,3.041,2.174,2.978,3.764h-4.925a1.93824,1.93824,0,0,0,2.049,2.165,1.58667,1.58667,0,0,0,1.705-1.286Zm-1.043-1.832a1.89442,1.89442,0,0,0-1.896-1.859,1.87346,1.87346,0,0,0-1.883,1.859Z"/>
    <path class="a" d="M127.95743,19.70861h1.019v1.387h.026a2.39,2.39,0,0,1,2.417-1.538v1.143c-1.744,0-2.38.993-2.38,2.661v2.926h-1.082Z"/>
    <path class="b" d="M23.56042,9.21061c.063,1.329.86,1.755,2.072,1.755.86,0,1.75-.316,1.75-1.155,0-.996-1.565-1.185-3.146-1.643-1.565-.459-3.206-1.186-3.206-3.259,0-2.468,2.41-3.431,4.465-3.431,2.178,0,4.372,1.091,4.387,3.637h-2.854c.048-1.028-.889-1.36-1.763-1.36-.615,0-1.382.223-1.382.964,0,.871,1.581,1.028,3.177,1.487,1.58.458,3.176,1.218,3.176,3.257,0,2.863-2.364,3.78-4.772,3.78-2.517,0-4.74-1.138-4.757-4.032Z"/>
    <path class="b" d="M35.36052,3.56161a4.63757,4.63757,0,0,1,4.701,4.864,4.695,4.695,0,1,1-9.385,0,4.624,4.624,0,0,1,4.684-4.864m0,7.411c1.356,0,1.785-1.381,1.785-2.547,0-1.167-.429-2.566-1.785-2.566s-1.767,1.399-1.767,2.566c0,1.166.411,2.547,1.767,2.547"/>
    <path class="b" d="M49.58542,13.00761h-2.832v-1.257h-.034a3.25465,3.25465,0,0,1-2.711,1.522c-2.557,0-3.294-1.522-3.294-3.928v-5.518h2.917v5.323c0,1.221.514,1.645,1.442,1.645.634,0,1.595-.424,1.595-2.051v-4.917h2.917Z"/>
    <path class="b" d="M56.28142,5.77161h-1.803v4.174c0,.724.414.884,1.048.884.24,0,.499-.035.755-.035v2.213c-.532.016-1.064.087-1.596.087-2.487,0-3.123-.741-3.123-3.238v-4.085h-1.332v-1.945h1.332v-2.78h2.916v2.78h1.803Z"/>
    <path class="b" d="M57.29952.37561h2.916v4.706h.035a3.07749,3.07749,0,0,1,2.711-1.52c2.967,0,3.208,2.227,3.208,3.553v5.893h-2.918v-4.442c0-1.255.139-2.529-1.458-2.529-1.099,0-1.578.955-1.578,1.964v5.007h-2.916Z"/>
    <polygon class="b" points="77.786 13.008 74.835 13.008 73.427 6.903 73.392 6.903 72.002 13.008 69.052 13.008 66.273 3.827 69.225 3.827 70.717 9.77 70.75 9.77 72.02 3.827 74.801 3.827 76.105 9.752 76.137 9.752 77.597 3.827 80.566 3.827 77.786 13.008"/>
    <path class="b" d="M83.14552,9.14962a1.93074,1.93074,0,0,0,1.99,2.087,1.73665,1.73665,0,0,0,1.665-1.006h2.727c-.53,2.123-2.435,3.042-4.425,3.042a4.54523,4.54523,0,0,1-4.873-4.884,4.7422,4.7422,0,0,1,4.804-4.827c3.191,0,4.787,2.475,4.651,5.588Zm3.62-1.681a1.83349,1.83349,0,0,0-1.732-1.874,1.95078,1.95078,0,0,0-1.888,1.874Z"/>
    <path class="b" d="M93.03442,9.98151a1.25238,1.25238,0,0,0,.481,1.026,1.79221,1.79221,0,0,0,1.081.318c.567,0,1.373-.246,1.373-.972,0-.708-.909-.85-1.424-.973-1.837-.479-4.135-.532-4.135-3.007,0-2.213,2.316-2.812,4.066-2.812,1.957,0,3.998.581,4.101,2.969h-2.694a.87543.87543,0,0,0-.376-.795,1.69243,1.69243,0,0,0-.927-.23c-.48,0-1.254.052-1.254.69,0,.867,1.957,1.027,3.296,1.327a2.57894,2.57894,0,0,1,2.264,2.478c0,2.457-2.264,3.272-4.272,3.272-2.111,0-4.273-.725-4.358-3.291Z"/>
    <path class="b" d="M104.99443,5.77161h-1.801v4.174c0,.724.412.884,1.047.884.24,0,.497-.035.754-.035v2.213c-.531.016-1.063.087-1.594.087-2.489,0-3.125-.741-3.125-3.238v-4.085h-1.475v-1.945h1.475v-2.78h2.918v2.78h1.801Z"/>
    <path class="b" d="M108.10042,9.14962a1.93148,1.93148,0,0,0,1.991,2.087,1.73243,1.73243,0,0,0,1.664-1.006h2.73c-.533,2.123-2.438,3.042-4.428,3.042a4.54572,4.54572,0,0,1-4.873-4.884,4.741,4.741,0,0,1,4.804-4.827c3.191,0,4.787,2.475,4.649,5.588Zm3.621-1.681a1.83432,1.83432,0,0,0-1.733-1.874,1.95008,1.95008,0,0,0-1.888,1.874Z"/>
    <path class="b" d="M115.51452,3.82661h2.831v1.608h.033a2.6857,2.6857,0,0,1,2.677-1.786,2.9166,2.9166,0,0,1,.687.071v2.743a3.95459,3.95459,0,0,0-1.115-.178,2.07941,2.07941,0,0,0-2.196,2.176v4.547h-2.917Z"/>
    <path class="b" d="M122.54742,3.82661h2.833v1.255h.033a3.33565,3.33565,0,0,1,2.798-1.52c2.967,0,3.208,2.227,3.208,3.553v5.893h-2.918v-4.442c0-1.255.138-2.529-1.459-2.529-1.096,0-1.576.955-1.576,1.964v5.007h-2.919Z"/>
    <polygon class="b" points="19.348 4.341 15.985 4.341 15.985 13.01 13.048 13.01 13.048 4.341 9.945 4.341 9.945 1.962 19.348 1.962 19.348 4.341"/>
    <path class="b" d="M5.32642,13.24251c3.33-.034,4.797-1.659,4.797-4.89v-6.391h-2.937v6.563c0,1.415-.508,2.154-1.86,2.191-1.359-.034-1.871-.773-1.871-2.191v-6.563H.51742v6.391c0,3.235,1.47,4.857,4.809,4.89"/>
  </g>
</svg>
